<svg width="36" height="36" viewBox="0 0 36 36" fill="none" xmlns="http://www.w3.org/2000/svg">
<path d="M18.2039 3.37502C9.97877 3.26392 3.26392 9.97877 3.37502 18.2039C3.4847 26.0923 9.90775 32.5153 17.7961 32.625C26.0227 32.7375 32.7361 26.0227 32.6236 17.7975C32.5153 9.90775 26.0923 3.4847 18.2039 3.37502ZM27.0928 26.3848C27.0648 26.4151 27.0305 26.4388 26.9923 26.4544C26.9541 26.4699 26.9129 26.4768 26.8717 26.4747C26.8305 26.4726 26.7903 26.4614 26.7539 26.4419C26.7175 26.4225 26.6858 26.3953 26.6611 26.3623C26.0322 25.5394 25.262 24.835 24.3865 24.2817C22.5963 23.1328 20.3281 22.5 18 22.5C15.672 22.5 13.4037 23.1328 11.6135 24.2817C10.7381 24.8347 9.96786 25.539 9.33892 26.3616C9.31421 26.3946 9.28254 26.4218 9.24615 26.4412C9.20975 26.4607 9.16953 26.4719 9.12833 26.474C9.08714 26.4761 9.04597 26.4692 9.00776 26.4537C8.96954 26.4381 8.93521 26.4144 8.9072 26.3841C6.84401 24.1568 5.67529 21.2466 5.62502 18.211C5.51041 11.3688 11.1249 5.64189 17.9698 5.62502C24.8147 5.60814 30.375 11.1663 30.375 18C30.3774 21.1088 29.205 24.1037 27.0928 26.3848Z" fill="#4B5563" stroke="#4B5563" stroke-width="0.6"/>
<path d="M18 10.125C16.6134 10.125 15.3598 10.6446 14.4689 11.5889C13.578 12.5332 13.133 13.8389 13.2335 15.2402C13.4374 18 15.5756 20.25 18 20.25C20.4244 20.25 22.5584 18 22.7665 15.2409C22.8706 13.853 22.429 12.5592 21.5234 11.5973C20.629 10.6481 19.3774 10.125 18 10.125Z" fill="#4B5563"/>
</svg>
