<svg width="36" height="36" viewBox="0 0 36 36" fill="none" xmlns="http://www.w3.org/2000/svg">
<g id="fluent:text-bullet-list-square-clock-20-regular">
<path id="Vector" d="M10.35 5.3999H25.65C26.9628 5.3999 28.2219 5.92142 29.1502 6.84972C30.0785 7.77803 30.6 9.03708 30.6 10.3499V17.2799C30.0247 16.9856 29.4218 16.7486 28.8 16.5725V10.3499C28.8 9.51447 28.4681 8.71326 27.8774 8.12252C27.2866 7.53178 26.4854 7.1999 25.65 7.1999H10.35C9.51456 7.1999 8.71335 7.53178 8.12261 8.12252C7.53187 8.71326 7.19999 9.51447 7.19999 10.3499V25.6499C7.19999 27.3887 8.61119 28.7999 10.35 28.7999H16.5726C16.7508 29.4281 16.9866 30.0293 17.28 30.5999H10.35C9.03717 30.5999 7.77812 30.0784 6.84982 29.1501C5.92151 28.2218 5.39999 26.9627 5.39999 25.6499V10.3499C5.39999 9.03708 5.92151 7.77803 6.84982 6.84972C7.77812 5.92142 9.03717 5.3999 10.35 5.3999ZM17.1 17.9999H20.4066C19.6812 18.5111 19.026 19.1159 18.4626 19.7999H17.1C16.8613 19.7999 16.6324 19.7051 16.4636 19.5363C16.2948 19.3675 16.2 19.1386 16.2 18.8999C16.2 18.6612 16.2948 18.4323 16.4636 18.2635C16.6324 18.0947 16.8613 17.9999 17.1 17.9999ZM12.15 14.3999C12.508 14.3999 12.8514 14.2577 13.1046 14.0045C13.3578 13.7513 13.5 13.4079 13.5 13.0499C13.5 12.6919 13.3578 12.3485 13.1046 12.0953C12.8514 11.8421 12.508 11.6999 12.15 11.6999C11.792 11.6999 11.4486 11.8421 11.1954 12.0953C10.9422 12.3485 10.8 12.6919 10.8 13.0499C10.8 13.4079 10.9422 13.7513 11.1954 14.0045C11.4486 14.2577 11.792 14.3999 12.15 14.3999ZM13.5 18.4499C13.5 18.8079 13.3578 19.1513 13.1046 19.4045C12.8514 19.6577 12.508 19.7999 12.15 19.7999C11.792 19.7999 11.4486 19.6577 11.1954 19.4045C10.9422 19.1513 10.8 18.8079 10.8 18.4499C10.8 18.0919 10.9422 17.7485 11.1954 17.4953C11.4486 17.2421 11.792 17.0999 12.15 17.0999C12.508 17.0999 12.8514 17.2421 13.1046 17.4953C13.3578 17.7485 13.5 18.0919 13.5 18.4499ZM13.5 23.8499C13.5 24.2079 13.3578 24.5513 13.1046 24.8045C12.8514 25.0577 12.508 25.1999 12.15 25.1999C11.792 25.1999 11.4486 25.0577 11.1954 24.8045C10.9422 24.5513 10.8 24.2079 10.8 23.8499C10.8 23.4919 10.9422 23.1485 11.1954 22.8953C11.4486 22.6421 11.792 22.4999 12.15 22.4999C12.508 22.4999 12.8514 22.6421 13.1046 22.8953C13.3578 23.1485 13.5 23.4919 13.5 23.8499ZM16.2 13.4999C16.2 13.2612 16.2948 13.0323 16.4636 12.8635C16.6324 12.6947 16.8613 12.5999 17.1 12.5999H24.3C24.5387 12.5999 24.7676 12.6947 24.9364 12.8635C25.1052 13.0323 25.2 13.2612 25.2 13.4999C25.2 13.7386 25.1052 13.9675 24.9364 14.1363C24.7676 14.3051 24.5387 14.3999 24.3 14.3999H17.1C16.8613 14.3999 16.6324 14.3051 16.4636 14.1363C16.2948 13.9675 16.2 13.7386 16.2 13.4999ZM34.2 26.0999C34.2 28.2482 33.3466 30.3084 31.8276 31.8275C30.3085 33.3465 28.2482 34.1999 26.1 34.1999C23.9517 34.1999 21.8915 33.3465 20.3724 31.8275C18.8534 30.3084 18 28.2482 18 26.0999C18 23.9516 18.8534 21.8914 20.3724 20.3723C21.8915 18.8533 23.9517 17.9999 26.1 17.9999C28.2482 17.9999 30.3085 18.8533 31.8276 20.3723C33.3466 21.8914 34.2 23.9516 34.2 26.0999ZM26.1 21.5999C25.8613 21.5999 25.6324 21.6947 25.4636 21.8635C25.2948 22.0323 25.2 22.2612 25.2 22.4999V26.0999C25.2 26.3386 25.2948 26.5675 25.4636 26.7363C25.6324 26.9051 25.8613 26.9999 26.1 26.9999H28.8C29.0387 26.9999 29.2676 26.9051 29.4364 26.7363C29.6052 26.5675 29.7 26.3386 29.7 26.0999C29.7 25.8612 29.6052 25.6323 29.4364 25.4635C29.2676 25.2947 29.0387 25.1999 28.8 25.1999H27V22.4999C27 22.2612 26.9052 22.0323 26.7364 21.8635C26.5676 21.6947 26.3387 21.5999 26.1 21.5999Z" fill="#4B5563" stroke="#4B5563" stroke-width="1.2"/>
</g>
</svg>
