<svg width="36" height="36" viewBox="0 0 36 36" fill="none" xmlns="http://www.w3.org/2000/svg">
<g id="ri:heart-add-line">
<path id="Vector" d="M28.5 21.0001V25.5001H33V28.5001H28.5V33.0001H25.5V28.5001H21V25.5001H25.5V21.0001H28.5ZM30.3645 7.13559C31.9893 8.76011 32.9313 10.9445 32.9974 13.2412C33.0635 15.5378 32.2487 17.7728 30.72 19.4881L28.59 17.3611C30.585 15.0751 30.48 11.4901 28.2405 9.25509C27.1563 8.17328 25.6996 7.54689 24.1686 7.50423C22.6376 7.46156 21.1482 8.00584 20.0055 9.02559L18.003 10.8226L15.999 9.02709C14.8615 8.00993 13.3792 7.46439 11.8537 7.50148C10.3282 7.53856 8.87416 8.1555 7.78744 9.22674C6.70072 10.298 6.06299 11.743 6.00402 13.2678C5.94505 14.7926 6.46927 16.2826 7.47001 17.4346L20.118 30.1036L18 32.2276L5.28001 19.4896C3.74889 17.7735 2.93281 15.5364 2.99931 13.2376C3.06581 10.9387 4.00984 8.75252 5.6376 7.12784C7.26535 5.50315 9.45332 4.56325 11.7523 4.50109C14.0513 4.43894 16.2868 5.25924 18 6.79359C19.7139 5.25939 21.9502 4.4399 24.2496 4.5035C26.5489 4.56711 28.7381 5.50899 30.3645 7.13559Z" fill="#4B5563"/>
</g>
</svg>
