<svg width="36" height="36" viewBox="0 0 36 36" fill="none" xmlns="http://www.w3.org/2000/svg">
<g id="solar:map-point-search-linear">
<g id="Group">
<path id="Vector" d="M6 15.2145C6 8.469 11.373 3 18 3C24.627 3 30 8.469 30 15.2145C30 21.9075 26.1705 29.7195 20.1945 32.511C19.5076 32.8326 18.7584 32.9993 18 32.9993C17.2416 32.9993 16.4924 32.8326 15.8055 32.511C9.8295 29.718 6 21.9075 6 15.216V15.2145Z" stroke="#4B5563" stroke-width="2.8"/>
<path id="Vector_2" d="M21.1875 18.1769L23.25 20.2499M21.1875 18.1769C21.6047 17.7583 21.9354 17.2616 22.1606 16.7153C22.3859 16.1689 22.5013 15.5835 22.5004 14.9925C22.4994 14.4015 22.382 13.8165 22.155 13.2708C21.9279 12.7252 21.5956 12.2296 21.177 11.8124C20.7584 11.3952 20.2617 11.0645 19.7154 10.8392C19.169 10.614 18.5836 10.4985 17.9926 10.4995C17.4016 10.5005 16.8165 10.6179 16.2709 10.8449C15.7253 11.072 15.2297 11.4043 14.8125 11.8229C13.9699 12.6683 13.4976 13.8137 13.4996 15.0073C13.5016 16.2009 13.9776 17.3448 14.823 18.1874C15.6684 19.03 16.8138 19.5022 18.0074 19.5003C19.201 19.4983 20.3449 19.0223 21.1875 18.1769Z" stroke="#4B5563" stroke-width="2.8" stroke-linecap="round"/>
</g>
</g>
</svg>
