<svg width="36" height="36" viewBox="0 0 36 36" fill="none" xmlns="http://www.w3.org/2000/svg">
<g id="solar:home-smile-outline">
<g id="Group">
<path id="Vector" d="M14.2615 22.9778C14.1277 22.8739 13.9746 22.7977 13.811 22.7537C13.647 22.7095 13.4758 22.6986 13.3075 22.7215C13.1392 22.7445 12.9772 22.8008 12.8309 22.8872C12.6847 22.9736 12.5572 23.0884 12.456 23.2248C12.3547 23.3611 12.2817 23.5164 12.2413 23.6814C12.2008 23.8463 12.1938 24.0177 12.2205 24.1855C12.2472 24.3532 12.3072 24.5139 12.3969 24.6582C12.4862 24.8018 12.6033 24.9263 12.7412 25.0243C14.2597 26.1591 16.1041 26.7732 17.9999 26.775L18.0002 26.775C19.8959 26.7732 21.7403 26.1591 23.2588 25.0243C23.3967 24.9263 23.5138 24.8018 23.6031 24.6582L23.4758 24.579L23.6031 24.6582C23.6928 24.5139 23.7528 24.3532 23.7795 24.1855C23.8063 24.0177 23.7992 23.8463 23.7588 23.6814C23.7183 23.5164 23.6453 23.3611 23.5441 23.2248C23.4428 23.0884 23.3153 22.9736 23.1691 22.8872C23.0229 22.8008 22.8608 22.7445 22.6925 22.7215C22.5242 22.6986 22.353 22.7095 22.189 22.7537C22.0255 22.7977 21.8723 22.8739 21.7385 22.9778C20.6595 23.7858 19.3481 24.2233 18 24.225C16.6519 24.2233 15.3406 23.7858 14.2615 22.9778Z" fill="#4B5563" stroke="#4B5563" stroke-width="0.3"/>
<path id="Vector_2" d="M31.2478 8.81501C30.4033 8.16672 29.3122 7.4891 27.9656 6.65283L27.8951 6.60908L27.8951 6.60906L24.7946 4.68455C23.3375 3.78005 22.1601 3.04923 21.1391 2.55309C20.0818 2.03735 19.0942 1.725 18 1.725C16.9071 1.725 15.9195 2.03897 14.8595 2.55303L14.8594 2.55312L31.1565 8.934M31.2478 8.81501L31.1565 8.934M31.2478 8.81501C31.2478 8.815 31.2478 8.81499 31.2478 8.81498L31.1565 8.934M31.2478 8.81501C32.1396 9.49898 32.8361 10.2024 33.34 11.1224M31.1565 8.934C32.0385 9.6105 32.718 10.299 33.2085 11.1945M33.34 11.1224L33.2085 11.1945M33.34 11.1224C33.8423 12.0392 34.0663 13.0108 34.1723 14.1475C34.275 15.2435 34.275 16.5798 34.275 18.2435V18.2505V20.67V20.6806C34.275 23.5278 34.275 25.7901 34.0458 27.5622L34.0457 27.5624C33.8082 29.3856 33.3059 30.8816 32.1599 32.0677L32.1598 32.0678C31.0056 33.2606 29.5418 33.7881 27.7587 34.0351M33.34 11.1224C33.3401 11.1224 33.3401 11.1224 33.3401 11.1224L33.2085 11.1945M33.2085 11.1945L27.7587 34.0351M27.7587 34.0351L27.738 33.8866L27.7586 34.0351C27.7586 34.0351 27.7587 34.0351 27.7587 34.0351ZM27.7587 34.0351C26.0384 34.275 23.8429 34.275 21.0984 34.275H21.087H14.913H14.9016C12.1571 34.275 9.96161 34.275 8.24128 34.0351H27.7587ZM4.8435 8.934L4.75244 8.81481L4.8435 8.934ZM4.8435 8.934L4.7523 8.81491M4.8435 8.934L4.7523 8.81491M2.7915 11.1945L2.65995 11.1224L2.7915 11.1945ZM2.7915 11.1945L2.65994 11.1224L2.7915 11.1945ZM2.1045 27.543L1.95574 27.5623L2.1045 27.543ZM2.1045 27.543L1.95576 27.5624L2.1045 27.543ZM12.4991 6.88345L12.4991 6.88346L9.49915 8.74492L9.49909 8.74496L9.48777 8.75199C8.04967 9.64537 7.04807 10.2676 6.30282 10.8395L6.30266 10.8396C5.57767 11.3945 5.17317 11.843 4.89704 12.3466C4.62082 12.8519 4.45475 13.4493 4.36735 14.3854L4.36732 14.3858C4.27516 15.349 4.275 16.566 4.275 18.306V20.5875C4.275 23.5483 4.27681 25.644 4.48523 27.2325L4.48527 27.2328C4.68572 28.7889 5.06392 29.6644 5.67426 30.2947L5.67451 30.2949C6.27814 30.9213 7.10765 31.3029 8.59156 31.5104C10.1179 31.7217 12.1336 31.725 15 31.725H21C23.8649 31.725 25.8821 31.7217 27.4084 31.5104C28.8921 31.3044 29.7219 30.9214 30.3272 30.2962C30.9362 29.6643 31.3143 28.7886 31.5162 27.2328C31.5162 27.2327 31.5162 27.2327 31.5162 27.2327L31.665 27.252C31.872 25.6515 31.875 23.5425 31.875 20.5875V18.306L12.4991 6.88345ZM12.4991 6.88345C14.0241 5.93688 15.0892 5.27873 15.9762 4.84635C16.8359 4.42759 17.4308 4.275 18 4.275C18.5692 4.275 19.1641 4.42759 20.0238 4.84635L20.024 4.84647C20.9123 5.27725 21.9756 5.9367 23.5009 6.88345L23.5009 6.88346L26.5008 8.74492L26.5009 8.74496L26.5125 8.75214C27.9504 9.64542 28.952 10.2677 29.6988 10.8396C30.4222 11.3944 30.8268 11.8429 31.1029 12.3465L12.4991 6.88345ZM4.7523 8.81491C4.75234 8.81488 4.75237 8.81485 4.75241 8.81482L4.7523 8.81491ZM3.9495 31.9635L3.84164 32.0677C3.84166 32.0678 3.84168 32.0678 3.8417 32.0678L3.9495 31.9635Z" fill="#4B5563" stroke="#4B5563" stroke-width="0.3"/>
</g>
</g>
</svg>
