<svg width="20" height="20" viewBox="0 0 20 20" fill="none" xmlns="http://www.w3.org/2000/svg">
<g id="entypo:sound" clip-path="url(#clip0_475_3788)">
<path id="Vector" d="M5.31199 4.566C4.18999 5.685 -0.715006 12.681 3.52299 16.918C7.75899 21.156 14.753 16.25 15.877 15.129C16.998 14.01 15.542 10.734 12.625 7.817C9.70599 4.898 6.43399 3.441 5.31199 4.566ZM14.576 14.156C14.244 14.484 11.681 13.699 9.21199 11.228C6.74499 8.759 5.95599 6.195 6.28799 5.865C6.61599 5.533 9.18199 6.322 11.648 8.791C14.119 11.258 14.906 13.824 14.576 14.156ZM15.434 5.982L17.338 4.076C17.5255 3.88849 17.6308 3.63418 17.6308 3.369C17.6308 3.10382 17.5255 2.84951 17.338 2.662C17.1505 2.47449 16.8962 2.36915 16.631 2.36915C16.3658 2.36915 16.1115 2.47449 15.924 2.662L14.02 4.568C13.8325 4.75551 13.7271 5.00982 13.7271 5.275C13.7271 5.4063 13.753 5.53632 13.8033 5.65763C13.8535 5.77893 13.9271 5.88916 14.02 5.982C14.1128 6.07484 14.2231 6.14849 14.3444 6.19874C14.4657 6.24899 14.5957 6.27485 14.727 6.27485C14.9922 6.27485 15.2465 6.16951 15.434 5.982ZM11.124 3.8C11.2388 3.86383 11.365 3.90442 11.4955 3.91947C11.6259 3.93451 11.7581 3.92371 11.8844 3.88768C12.0106 3.85165 12.1286 3.7911 12.2315 3.70948C12.3344 3.62786 12.4202 3.52678 12.484 3.412L13.571 1.486C13.6999 1.2542 13.7314 0.980692 13.6587 0.725643C13.5859 0.470593 13.4148 0.254895 13.183 0.126C12.9512 -0.0028953 12.6777 -0.0344294 12.4226 0.0383347C12.1676 0.111099 11.9519 0.282201 11.823 0.514L10.736 2.44C10.6722 2.55477 10.6316 2.681 10.6165 2.81146C10.6015 2.94192 10.6123 3.07407 10.6483 3.20036C10.6843 3.32665 10.7449 3.44461 10.8265 3.54749C10.9081 3.65038 11.0092 3.73618 11.124 3.8ZM19.872 6.816C19.8083 6.70113 19.7225 6.59995 19.6196 6.51825C19.5168 6.43656 19.3988 6.37596 19.2725 6.33992C19.1461 6.30388 19.014 6.29311 18.8835 6.30822C18.753 6.32334 18.6267 6.36404 18.512 6.428L16.572 7.489C16.4572 7.55282 16.3561 7.63863 16.2745 7.74151C16.1929 7.8444 16.1324 7.96235 16.0963 8.08864C16.0603 8.21493 16.0495 8.34708 16.0645 8.47754C16.0796 8.608 16.1202 8.73422 16.184 8.849C16.2478 8.96378 16.3336 9.06486 16.4365 9.14647C16.5394 9.22809 16.6573 9.28864 16.7836 9.32467C16.9099 9.36069 17.0421 9.3715 17.1725 9.35645C17.303 9.34141 17.4292 9.30082 17.544 9.237L19.484 8.176C19.5988 8.11218 19.6999 8.02638 19.7815 7.92349C19.8631 7.82061 19.9236 7.70265 19.9597 7.57636C19.9957 7.45007 20.0065 7.31792 19.9915 7.18746C19.9764 7.057 19.9358 6.93077 19.872 6.816Z" fill="#E06738"/>
</g>
<defs>
<clipPath id="clip0_475_3788">
<rect width="20" height="20" fill="white"/>
</clipPath>
</defs>
</svg>
