<svg width="23" height="23" viewBox="0 0 23 23" fill="none" xmlns="http://www.w3.org/2000/svg">
<g id="material-symbols:stairs">
<path id="Vector" d="M6 17H10.425V13.675H13V10.35H15.575V7H18V5H13.575V8.325H11V11.65H8.425V15H6V17ZM5 20C4.45 20 3.979 19.804 3.587 19.412C3.195 19.02 2.99934 18.5493 3 18V4C3 3.45 3.196 2.979 3.588 2.587C3.98 2.195 4.45067 1.99934 5 2H19C19.55 2 20.021 2.196 20.413 2.588C20.805 2.98 21.0007 3.45067 21 4V18C21 18.55 20.804 19.021 20.412 19.413C20.02 19.805 19.5493 20.0007 19 20H5Z" fill="#E06738"/>
</g>
</svg>
