<svg width="24" height="24" viewBox="0 0 24 24" fill="none" xmlns="http://www.w3.org/2000/svg">
<g id="fluent:vehicle-car-parking-24-filled">
<path id="Vector" d="M17.25 2C17.25 1.73478 17.3554 1.48043 17.5429 1.29289C17.7304 1.10536 17.9848 1 18.25 1H22C22.2652 1 22.5196 1.10536 22.7071 1.29289C22.8946 1.48043 23 1.73478 23 2V7C23 7.26522 22.8946 7.51957 22.7071 7.70711C22.5196 7.89464 22.2652 8 22 8H21V22.25C21 22.4489 20.921 22.6397 20.7803 22.7803C20.6397 22.921 20.4489 23 20.25 23C20.0511 23 19.8603 22.921 19.7197 22.7803C19.579 22.6397 19.5 22.4489 19.5 22.25V8H18.25C17.9848 8 17.7304 7.89464 17.5429 7.70711C17.3554 7.51957 17.25 7.26522 17.25 7V2ZM15.8 3C15.952 3 16.102 3.01 16.25 3.031V4.56C16.1032 4.52088 15.9519 4.50105 15.8 4.501H8.201C7.81062 4.50097 7.43144 4.63146 7.12377 4.87174C6.81609 5.11201 6.59758 5.44825 6.503 5.827L5.711 9H18.5V18.5H17.499L17.5 19.747C17.5 19.885 17.612 19.997 17.75 19.997H18.5V21.497H17.75C17.2859 21.497 16.8408 21.3126 16.5126 20.9844C16.1844 20.6562 16 20.2111 16 19.747L15.999 18.5H8.004V19.747C8.004 20.2111 7.81963 20.6562 7.49144 20.9844C7.16325 21.3126 6.71813 21.497 6.254 21.497H4.75C4.28587 21.497 3.84075 21.3126 3.51256 20.9844C3.18437 20.6562 3 20.2111 3 19.747V11.25C3 10.435 3.433 9.721 4.082 9.327L4.289 8.5H3.75C3.56876 8.49999 3.39366 8.43436 3.25707 8.31523C3.12048 8.19611 3.03165 8.03155 3.007 7.852L3 7.75C3.00001 7.56876 3.06564 7.39366 3.18477 7.25707C3.30389 7.12048 3.46845 7.03165 3.648 7.007L3.75 7H4.663L5.049 5.462C5.22475 4.75879 5.63052 4.13451 6.20183 3.68842C6.77313 3.24232 7.47716 3.00001 8.202 3H15.799H15.8ZM6.503 18.5H4.499L4.5 19.747C4.5 19.885 4.612 19.997 4.75 19.997H6.254C6.3203 19.997 6.38389 19.9707 6.43078 19.9238C6.47766 19.8769 6.504 19.8133 6.504 19.747V18.5H6.503ZM13.75 14H10.248L10.146 14.007C9.96649 14.0317 9.80199 14.1206 9.68291 14.2571C9.56383 14.3937 9.49823 14.5688 9.49823 14.75C9.49823 14.9312 9.56383 15.1063 9.68291 15.2429C9.80199 15.3794 9.96649 15.4683 10.146 15.493L10.248 15.5H13.75L13.851 15.493C14.0391 15.4671 14.2104 15.3709 14.3303 15.2237C14.4502 15.0765 14.5098 14.8893 14.4971 14.6999C14.4844 14.5104 14.4004 14.3329 14.2619 14.203C14.1234 14.0731 13.9409 14.0006 13.751 14H13.75ZM17 12C16.7348 12 16.4804 12.1054 16.2929 12.2929C16.1054 12.4804 16 12.7348 16 13C16 13.2652 16.1054 13.5196 16.2929 13.7071C16.4804 13.8946 16.7348 14 17 14C17.2652 14 17.5196 13.8946 17.7071 13.7071C17.8946 13.5196 18 13.2652 18 13C18 12.7348 17.8946 12.4804 17.7071 12.2929C17.5196 12.1054 17.2652 12 17 12ZM7 12C6.73478 12 6.48043 12.1054 6.29289 12.2929C6.10536 12.4804 6 12.7348 6 13C6 13.2652 6.10536 13.5196 6.29289 13.7071C6.48043 13.8946 6.73478 14 7 14C7.26522 14 7.51957 13.8946 7.70711 13.7071C7.89464 13.5196 8 13.2652 8 13C8 12.7348 7.89464 12.4804 7.70711 12.2929C7.51957 12.1054 7.26522 12 7 12Z" fill="#E06738"/>
</g>
</svg>
