<svg width="23" height="23" viewBox="0 0 23 23" fill="none" xmlns="http://www.w3.org/2000/svg">
<g id="solar:money-bag-bold">
<path id="Vector" fill-rule="evenodd" clip-rule="evenodd" d="M12.052 0.25H11.948C11.049 0.25 10.3 0.25 9.706 0.33C9.078 0.414 8.511 0.6 8.056 1.055C7.6 1.511 7.414 2.078 7.33 2.705C7.273 3.132 7.256 4.151 7.252 5.025C5.23 5.092 4.015 5.328 3.172 6.172C2 7.343 2 9.229 2 13C2 16.771 2 18.657 3.172 19.828C4.343 21 6.229 21 10 21H14C17.771 21 19.657 21 20.828 19.828C22 18.657 22 16.771 22 13C22 9.229 22 7.343 20.828 6.172C19.985 5.328 18.77 5.092 16.748 5.026C16.744 4.151 16.728 3.132 16.67 2.706C16.586 2.078 16.4 1.511 15.944 1.056C15.489 0.6 14.922 0.414 14.294 0.33C13.7 0.25 12.95 0.25 12.052 0.25ZM15.248 5.002C15.243 4.155 15.229 3.244 15.184 2.905C15.121 2.444 15.014 2.246 14.884 2.116C14.754 1.986 14.556 1.879 14.094 1.816C13.612 1.752 12.964 1.75 12 1.75C11.036 1.75 10.388 1.752 9.905 1.817C9.444 1.879 9.246 1.986 9.116 2.117C8.986 2.247 8.879 2.444 8.816 2.905C8.771 3.245 8.756 4.155 8.752 5.002C9.143 5 9.56 5 10 5H14C14.441 5 14.857 5 15.248 5.002ZM12 8.25C12.1989 8.25 12.3897 8.32902 12.5303 8.46967C12.671 8.61032 12.75 8.80109 12.75 9V9.01C13.839 9.284 14.75 10.143 14.75 11.333C14.75 11.5319 14.671 11.7227 14.5303 11.8633C14.3897 12.004 14.1989 12.083 14 12.083C13.8011 12.083 13.6103 12.004 13.4697 11.8633C13.329 11.7227 13.25 11.5319 13.25 11.333C13.25 10.949 12.824 10.417 12 10.417C11.176 10.417 10.75 10.949 10.75 11.333C10.75 11.717 11.176 12.25 12 12.25C13.385 12.25 14.75 13.21 14.75 14.667C14.75 15.857 13.839 16.715 12.75 16.99V17C12.75 17.1989 12.671 17.3897 12.5303 17.5303C12.3897 17.671 12.1989 17.75 12 17.75C11.8011 17.75 11.6103 17.671 11.4697 17.5303C11.329 17.3897 11.25 17.1989 11.25 17V16.99C10.161 16.716 9.25 15.857 9.25 14.667C9.25 14.4681 9.32902 14.2773 9.46967 14.1367C9.61032 13.996 9.80109 13.917 10 13.917C10.1989 13.917 10.3897 13.996 10.5303 14.1367C10.671 14.2773 10.75 14.4681 10.75 14.667C10.75 15.051 11.176 15.583 12 15.583C12.824 15.583 13.25 15.051 13.25 14.667C13.25 14.283 12.824 13.75 12 13.75C10.615 13.75 9.25 12.79 9.25 11.333C9.25 10.143 10.161 9.284 11.25 9.01V9C11.25 8.80109 11.329 8.61032 11.4697 8.46967C11.6103 8.32902 11.8011 8.25 12 8.25Z" fill="#E06738"/>
</g>
</svg>
