<svg width="21" height="21" viewBox="0 0 21 21" fill="none" xmlns="http://www.w3.org/2000/svg">
<g id="fluent:tv-28-filled">
<path id="Vector" d="M3.94055 3C3.29409 3 2.6741 3.25681 2.21698 3.71393C1.75986 4.17105 1.50305 4.79103 1.50305 5.4375V13.3125C1.50305 13.959 1.75986 14.579 2.21698 15.0361C2.6741 15.4932 3.29409 15.75 3.94055 15.75H17.0633C17.7098 15.75 18.3298 15.4932 18.7869 15.0361C19.244 14.579 19.5008 13.959 19.5008 13.3125V5.4375C19.5008 4.79103 19.244 4.17105 18.7869 3.71393C18.3298 3.25681 17.7098 3 17.0633 3H3.94055ZM4.50005 17.8125C4.50005 17.6633 4.55931 17.5202 4.6648 17.4148C4.77029 17.3093 4.91337 17.25 5.06255 17.25H15.9376C16.0867 17.25 16.2298 17.3093 16.3353 17.4148C16.4408 17.5202 16.5001 17.6633 16.5001 17.8125C16.5001 17.9617 16.4408 18.1048 16.3353 18.2102C16.2298 18.3157 16.0867 18.375 15.9376 18.375H5.06255C4.91337 18.375 4.77029 18.3157 4.6648 18.2102C4.55931 18.1048 4.50005 17.9617 4.50005 17.8125Z" fill="#E06738"/>
</g>
</svg>
