<svg width="23" height="23" viewBox="0 0 23 23" fill="none" xmlns="http://www.w3.org/2000/svg">
<g id="material-symbols:chair-alt-rounded">
<path id="Vector" d="M7 17V19C7 19.2833 6.904 19.521 6.712 19.713C6.52 19.905 6.28267 20.0007 6 20C5.71667 20 5.479 19.904 5.287 19.712C5.095 19.52 4.99934 19.2827 5 19V13C5 12.45 5.196 11.979 5.588 11.587C5.98 11.195 6.45067 10.9993 7 11H8V9H7C6.45 9 5.979 8.804 5.587 8.412C5.195 8.02 4.99934 7.54934 5 7V4C5 3.45 5.196 2.979 5.588 2.587C5.98 2.195 6.45067 1.99934 7 2H17C17.55 2 18.021 2.196 18.413 2.588C18.805 2.98 19.0007 3.45067 19 4V7C19 7.55 18.804 8.021 18.412 8.413C18.02 8.805 17.5493 9.00067 17 9H16V11H17C17.55 11 18.021 11.196 18.413 11.588C18.805 11.98 19.0007 12.4507 19 13V19C19 19.2833 18.904 19.521 18.712 19.713C18.52 19.905 18.2827 20.0007 18 20C17.7167 20 17.479 19.904 17.287 19.712C17.095 19.52 16.9993 19.2827 17 19V17H7ZM10 11H14V9H10V11Z" fill="#E06738"/>
</g>
</svg>
