<svg width="16" height="16" viewBox="0 0 16 16" fill="none" xmlns="http://www.w3.org/2000/svg">
<path d="M14.9669 11.5669C14.8037 11.3931 14.2278 10.8794 13.169 10.1997C12.1025 9.51408 11.3159 9.08657 11.0903 8.98689C11.0704 8.97807 11.0485 8.97483 11.0269 8.97753C11.0053 8.98023 10.9849 8.98876 10.9678 9.0022C10.6044 9.28564 9.99248 9.80626 9.95966 9.83439C9.74779 10.016 9.74779 10.016 9.57435 9.95939C9.26935 9.85939 8.32185 9.35626 7.49623 8.52876C6.6706 7.70126 6.14154 6.73032 6.04154 6.42564C5.98435 6.25189 5.98435 6.25189 6.16654 6.04001C6.19466 6.0072 6.7156 5.39532 6.99904 5.0322C7.01248 5.0151 7.02101 4.99466 7.02371 4.97308C7.02641 4.95149 7.02317 4.92958 7.01435 4.9097C6.91466 4.68376 6.48716 3.89751 5.80154 2.83095C5.12091 1.77251 4.60779 1.19657 4.43404 1.03345C4.41809 1.0184 4.39839 1.00794 4.37699 1.00315C4.3556 0.998367 4.33331 0.999442 4.31248 1.00626C3.70512 1.21498 3.11912 1.48129 2.56248 1.80157C2.02511 2.11396 1.51636 2.47316 1.04216 2.87501C1.02561 2.88908 1.0132 2.9074 1.00626 2.92799C0.999327 2.94858 0.998126 2.97067 1.00279 2.99189C1.0681 3.29626 1.38029 4.56689 2.34904 6.32689C3.33748 8.12314 4.02248 9.04345 5.47404 10.49C6.9256 11.9366 7.87498 12.6628 9.6731 13.6513C11.4331 14.62 12.7044 14.9325 13.0081 14.9972C13.0294 15.0018 13.0515 15.0006 13.0721 14.9937C13.0928 14.9867 13.1111 14.9743 13.1253 14.9578C13.5271 14.4836 13.8862 13.9749 14.1984 13.4375C14.5186 12.8808 14.7849 12.2948 14.9937 11.6875C15.0004 11.6668 15.0014 11.6447 14.9967 11.6235C14.992 11.6023 14.9817 11.5828 14.9669 11.5669Z" fill="#FE8D00"/>
</svg>
