<svg width="16" height="16" viewBox="0 0 16 16" fill="none" xmlns="http://www.w3.org/2000/svg">
<g id="jam:task-list-f">
<path id="Vector" d="M5.33337 1.33334H10.6667C11.7276 1.33334 12.745 1.75477 13.4951 2.50492C14.2453 3.25506 14.6667 4.27248 14.6667 5.33334V10.6667C14.6667 11.7275 14.2453 12.745 13.4951 13.4951C12.745 14.2452 11.7276 14.6667 10.6667 14.6667H5.33337C4.27251 14.6667 3.25509 14.2452 2.50495 13.4951C1.7548 12.745 1.33337 11.7275 1.33337 10.6667L1.33337 5.33334C1.33337 4.27248 1.7548 3.25506 2.50495 2.50492C3.25509 1.75477 4.27251 1.33334 5.33337 1.33334ZM9.33337 7.33334C9.15656 7.33334 8.98699 7.40358 8.86197 7.52861C8.73695 7.65363 8.66671 7.8232 8.66671 8.00001C8.66671 8.17682 8.73695 8.34639 8.86197 8.47141C8.98699 8.59644 9.15656 8.66668 9.33337 8.66668H11.3334C11.5102 8.66668 11.6798 8.59644 11.8048 8.47141C11.9298 8.34639 12 8.17682 12 8.00001C12 7.8232 11.9298 7.65363 11.8048 7.52861C11.6798 7.40358 11.5102 7.33334 11.3334 7.33334H9.33337ZM8.00004 10C7.82323 10 7.65366 10.0702 7.52864 10.1953C7.40361 10.3203 7.33337 10.4899 7.33337 10.6667C7.33337 10.8435 7.40361 11.0131 7.52864 11.1381C7.65366 11.2631 7.82323 11.3333 8.00004 11.3333H11.3334C11.5102 11.3333 11.6798 11.2631 11.8048 11.1381C11.9298 11.0131 12 10.8435 12 10.6667C12 10.4899 11.9298 10.3203 11.8048 10.1953C11.6798 10.0702 11.5102 10 11.3334 10H8.00004ZM8.00004 4.66668C7.82323 4.66668 7.65366 4.73691 7.52864 4.86194C7.40361 4.98696 7.33337 5.15653 7.33337 5.33334C7.33337 5.51015 7.40361 5.67972 7.52864 5.80475C7.65366 5.92977 7.82323 6.00001 8.00004 6.00001H11.3334C11.5102 6.00001 11.6798 5.92977 11.8048 5.80475C11.9298 5.67972 12 5.51015 12 5.33334C12 5.15653 11.9298 4.98696 11.8048 4.86194C11.6798 4.73691 11.5102 4.66668 11.3334 4.66668H8.00004ZM5.21871 8.16201L4.74737 7.69068C4.68588 7.627 4.61231 7.57621 4.53098 7.54128C4.44964 7.50634 4.36216 7.48795 4.27364 7.48718C4.18512 7.48641 4.09734 7.50327 4.0154 7.5368C3.93347 7.57032 3.85904 7.61982 3.79644 7.68241C3.73385 7.74501 3.68435 7.81944 3.65083 7.90137C3.61731 7.9833 3.60044 8.07109 3.60121 8.15961C3.60198 8.24813 3.62037 8.33561 3.65531 8.41695C3.69025 8.49828 3.74103 8.57185 3.80471 8.63334L4.74737 9.57601C4.80929 9.63799 4.88281 9.68717 4.96375 9.72072C5.04468 9.75427 5.13143 9.77153 5.21904 9.77153C5.30665 9.77153 5.3934 9.75427 5.47433 9.72072C5.55527 9.68717 5.62879 9.63799 5.69071 9.57601L7.57604 7.69068C7.70122 7.56567 7.77162 7.39606 7.77174 7.21915C7.77187 7.04224 7.70171 6.87253 7.57671 6.74734C7.4517 6.62216 7.28209 6.55176 7.10518 6.55164C6.92827 6.55151 6.75856 6.62167 6.63337 6.74668L5.21871 8.16134V8.16201Z" fill="#FE8D00"/>
</g>
</svg>
