<svg width="16" height="16" viewBox="0 0 16 16" fill="none" xmlns="http://www.w3.org/2000/svg">
<g id="Frame" clip-path="url(#clip0_475_3176)">
<path id="Vector" d="M7.99963 0.999847C6.54147 1.00158 5.14353 1.5816 4.11246 2.61267C3.08138 3.64375 2.50136 5.04169 2.49963 6.49985C2.49963 11.2059 7.49963 14.7606 7.71252 14.9095C7.79672 14.9683 7.89694 14.9998 7.99963 14.9998C8.10233 14.9998 8.20255 14.9683 8.28674 14.9095C8.49963 14.7606 13.4996 11.2059 13.4996 6.49985C13.4979 5.04169 12.9179 3.64375 11.8868 2.61267C10.8557 1.5816 9.45779 1.00158 7.99963 0.999847ZM8 4.50003C8.39556 4.50003 8.78224 4.61733 9.11114 4.83709C9.44004 5.05685 9.69638 5.36921 9.84776 5.73466C9.99913 6.10011 10.0387 6.50225 9.96157 6.89021C9.8844 7.27817 9.69392 7.63454 9.41421 7.91424C9.13451 8.19395 8.77814 8.38443 8.39018 8.4616C8.00222 8.53877 7.60009 8.49916 7.23463 8.34779C6.86918 8.19641 6.55682 7.94007 6.33706 7.61117C6.1173 7.28227 6 6.89559 6 6.50003C5.99999 6.23738 6.05172 5.97731 6.15223 5.73465C6.25273 5.492 6.40005 5.27152 6.58577 5.0858C6.77149 4.90008 6.99197 4.75276 7.23462 4.65225C7.47728 4.55175 7.73735 4.50002 8 4.50003Z" fill="#FE8D00"/>
</g>
<defs>
<clipPath id="clip0_475_3176">
<rect width="16" height="16" fill="white"/>
</clipPath>
</defs>
</svg>
