<svg width="20" height="20" viewBox="0 0 20 20" fill="none" xmlns="http://www.w3.org/2000/svg">
<g id="pepicons-pop:person">
<g id="Group">
<path id="Vector" fill-rule="evenodd" clip-rule="evenodd" d="M6 6C6 7.06087 6.42143 8.07828 7.17157 8.82843C7.92172 9.57857 8.93913 10 10 10C11.0609 10 12.0783 9.57857 12.8284 8.82843C13.5786 8.07828 14 7.06087 14 6C14 4.93913 13.5786 3.92172 12.8284 3.17157C12.0783 2.42143 11.0609 2 10 2C8.93913 2 7.92172 2.42143 7.17157 3.17157C6.42143 3.92172 6 4.93913 6 6ZM12 6C12 6.53043 11.7893 7.03914 11.4142 7.41421C11.0391 7.78929 10.5304 8 10 8C9.46957 8 8.96086 7.78929 8.58579 7.41421C8.21071 7.03914 8 6.53043 8 6C8 5.46957 8.21071 4.96086 8.58579 4.58579C8.96086 4.21071 9.46957 4 10 4C10.5304 4 11.0391 4.21071 11.4142 4.58579C11.7893 4.96086 12 5.46957 12 6Z" fill="black"/>
<path id="Vector_2" d="M17 18C17 18.2652 16.8946 18.5196 16.7071 18.7071C16.5196 18.8946 16.2652 19 16 19C15.7348 19 15.4804 18.8946 15.2929 18.7071C15.1054 18.5196 15 18.2652 15 18V15.5C15 13.006 12.794 11 10.016 11C7.23 11 5 13.013 5 15.5L5.002 18C5.002 18.2652 4.89664 18.5196 4.70911 18.7071C4.52157 18.8946 4.26722 19 4.002 19C3.73678 19 3.48243 18.8946 3.29489 18.7071C3.10736 18.5196 3.002 18.2652 3.002 18L3 15.5C3 11.86 6.169 9 10.016 9C13.86 9 17 11.857 17 15.5V18Z" fill="black"/>
</g>
</g>
</svg>
