<svg width="24" height="24" viewBox="0 0 24 24" fill="none" xmlns="http://www.w3.org/2000/svg">
<g id="material-symbols:heart-plus">
<path id="Vector" d="M18 17V14H15V12H18V9H20V12H23V14H20V17H18ZM11 21L7.825 18.15C6.625 17.0667 5.59567 16.1 4.737 15.25C3.87834 14.4 3.17 13.6 2.612 12.85C2.054 12.1 1.64567 11.375 1.387 10.675C1.12834 9.975 0.999336 9.24167 1 8.475C1 6.90834 1.525 5.604 2.575 4.562C3.625 3.52 4.93334 2.99934 6.5 3C7.36667 3 8.19167 3.179 8.975 3.537C9.75834 3.895 10.4333 4.40767 11 5.075C11.5667 4.40833 12.2417 3.89567 13.025 3.537C13.8083 3.17834 14.6333 2.99934 15.5 3C16.9167 3 18.1043 3.42934 19.063 4.288C20.0217 5.14667 20.6173 6.15067 20.85 7.3C20.55 7.18334 20.25 7.096 19.95 7.038C19.65 6.98 19.3583 6.95067 19.075 6.95C17.3917 6.95 15.9583 7.53767 14.775 8.713C13.5917 9.88834 13 11.3173 13 13C13 13.8667 13.175 14.6877 13.525 15.463C13.875 16.2383 14.3667 16.9007 15 17.45C14.6833 17.7333 14.2707 18.096 13.762 18.538C13.2533 18.98 12.816 19.3673 12.45 19.7L11 21Z" fill="#DDDDDE"/>
</g>
</svg>
