<svg width="209" height="213" viewBox="0 0 209 213" fill="none" xmlns="http://www.w3.org/2000/svg">
<rect width="209" height="213" fill="#FFF7ED"/>
<g id="&#236;&#152;&#136;&#236;&#149;&#189;&#236;&#153;&#132;&#235;&#163;&#140;" clip-path="url(#clip0_475_2354)">
<rect width="375" height="812" transform="translate(-70 -64)" fill="white"/>
<g id="Frame 510" filter="url(#filter0_dd_475_2354)">
<rect x="-54" y="-8" width="343" height="515" rx="10" fill="white" shape-rendering="crispEdges"/>
<g id="QR">
<g id="bags" clip-path="url(#clip1_475_2354)">
<g id="bags_2">
<g id="bags_3">
<g id="Group">
<g id="Group_2">
<path id="Vector" d="M89.868 69.0837L88.0149 69.0024C88.1253 66.4746 89.2352 44.1884 94.1132 40.123C94.423 39.8461 94.7883 39.6387 95.1847 39.5146C95.5811 39.3904 95.9994 39.3524 96.4116 39.4031C99.3157 39.8076 102.487 44.4157 106.106 53.4907C108.684 59.952 110.542 66.3946 110.56 66.459L108.777 66.9713C108.759 66.9078 106.923 60.5431 104.379 54.167C99.8873 42.9093 97.1322 41.3776 96.1561 41.2418C95.9995 41.2248 95.8411 41.2437 95.6928 41.297C95.5445 41.3503 95.4102 41.4366 95.3002 41.5493C91.7008 44.5488 90.1586 62.442 89.868 69.0837Z" fill="black"/>
<path id="Vector_2" d="M73.4962 57.0587L71.6411 103.609L132.849 97.0113L125.283 52.0683L73.4962 57.0587Z" fill="#FF725E"/>
</g>
<path id="Vector_3" d="M125.283 52.0683L120.78 52.502L126.772 91.9126L71.8555 98.2357L71.6411 103.609L132.849 97.0113L125.283 52.0683Z" fill="#3A4C82" fill-opacity="0.0722656"/>
</g>
<g id="Group_3">
<path id="Vector_4" d="M158.35 132.113L155.804 131.83C155.826 131.63 157.94 111.717 151.085 104.27C150.279 103.364 149.279 102.653 148.16 102.189C147.04 101.725 145.831 101.52 144.621 101.591C129.689 102.015 122.668 127.658 122.599 127.917L120.125 127.255C121.504 122.466 123.42 117.849 125.835 113.491C131.037 104.23 137.508 99.2289 144.548 99.0287C146.124 98.9479 147.699 99.2208 149.156 99.8275C150.613 100.434 151.916 101.359 152.97 102.535C160.613 110.841 158.446 131.248 158.35 132.113Z" fill="#FF725E"/>
<path id="Vector_5" d="M112.928 113.85L166.958 120.263L166.12 205.997L93.9968 197.401L112.928 113.85Z" fill="#FE8D00"/>
<path id="Vector_6" d="M166.958 120.263L161.607 119.627L159.001 198.955L95.0127 192.918L93.9968 197.401L166.12 205.997L166.958 120.263Z" fill="#B6410E"/>
</g>
<path id="Vector_7" d="M180.499 147.509C182.96 148.025 185.304 146.057 185.735 143.109C186.194 143.893 186.653 144.678 187.112 145.464C186.681 148.411 184.335 150.38 181.878 149.864C181.419 149.078 180.959 148.293 180.499 147.509Z" fill="#FF725E"/>
<path id="Vector_8" d="M107.832 210.563C110.293 211.079 112.637 209.11 113.068 206.163C113.527 206.947 113.986 207.731 114.445 208.517C114.015 211.464 111.669 213.434 109.211 212.918C108.752 212.132 108.292 211.347 107.832 210.563Z" fill="#9B9B9B"/>
<path id="Vector_9" d="M185.994 98.1688C187.026 100.893 189.705 102.103 191.981 100.867C191.699 101.765 191.417 102.662 191.134 103.559C188.858 104.793 186.179 103.584 185.148 100.859C185.432 99.9633 185.714 99.0666 185.994 98.1688Z" fill="#FF5C00"/>
<path id="Vector_10" d="M170.071 78.8197C170.487 75.8687 168.827 73.0745 166.364 72.5774C167.015 72.0213 167.667 71.4653 168.32 70.9095C170.782 71.4067 172.442 74.202 172.028 77.1519C171.376 77.7081 170.724 78.264 170.071 78.8197Z" fill="#021193"/>
<path id="Vector_11" d="M22.2077 66.9101C22.623 63.9591 20.9636 61.1648 18.5 60.6677C19.1515 60.1116 19.8035 59.5557 20.4563 59C22.918 59.497 24.5783 62.2923 24.164 65.2423C23.5125 65.7984 22.8604 66.3543 22.2077 66.9101Z" fill="#FF5C00"/>
<path id="Vector_12" d="M72.5943 171.475C73.0097 168.523 71.3503 165.729 68.8867 165.232C69.5382 164.676 70.1902 164.12 70.8429 163.564C73.3046 164.061 74.9649 166.857 74.5506 169.807C73.8992 170.363 73.2471 170.919 72.5943 171.475Z" fill="#FF5C00"/>
<path id="Vector_13" d="M201.832 60.8891C204.276 61.5061 206.673 59.6327 207.188 56.7032C207.626 57.5058 208.063 58.309 208.5 59.1129C207.986 62.0395 205.587 63.914 203.144 63.2988C202.706 62.4962 202.269 61.693 201.832 60.8891Z" fill="#FF725E"/>
<path id="Vector_14" d="M6.32079 97.1413C5.44465 94.3384 2.83935 92.9172 0.5 93.968C0.830918 93.0967 1.16232 92.2241 1.49421 91.3504C3.83162 90.3007 6.43838 91.7209 7.315 94.5225C6.9841 95.395 6.65269 96.2679 6.32079 97.1413Z" fill="#FF725E"/>
<path id="Vector_15" d="M67.0339 131.279C67.2066 134.264 69.3667 136.516 71.8577 136.308C71.3324 137.033 70.8061 137.754 70.2818 138.479C67.7898 138.685 65.6306 136.432 65.458 133.447C65.9833 132.726 66.5086 132.003 67.0339 131.279Z" fill="#FE8D00"/>
<path id="Vector_16" d="M49.4287 77.0531C51.9027 76.6419 53.6295 73.9049 53.2852 70.9409C53.9244 71.5196 54.5625 72.0977 55.1998 72.6751C55.543 75.6403 53.8173 78.3755 51.3432 78.7885C50.706 78.2096 50.0678 77.6312 49.4287 77.0531Z" fill="#021193"/>
<path id="Vector_17" d="M150.312 40.7055C147.104 40.8118 149.41 46.4645 146.201 46.573C145.588 45.9567 144.976 45.3403 144.362 44.724C147.571 44.6172 145.265 38.9644 148.473 38.856C149.086 39.4724 149.699 40.0889 150.312 40.7055Z" fill="#FF5C00"/>
<path id="Vector_18" d="M156.142 189.278C153.019 188.392 154.031 194.565 150.907 193.68C150.447 192.895 149.988 192.11 149.529 191.325C152.652 192.211 151.639 186.038 154.764 186.924C155.223 187.709 155.682 188.494 156.142 189.278Z" fill="#FF725E"/>
<path id="Vector_19" d="M63.2806 197.315C61.0751 200.11 66.042 202.157 63.8363 204.949C63.0398 205.031 62.2423 205.116 61.4458 205.197C63.6514 202.404 58.6845 200.359 60.8901 197.565C61.6876 197.483 62.4844 197.4 63.2806 197.315Z" fill="#021193"/>
<path id="Vector_20" d="M134.725 4.35469C131.585 5.15391 134.702 10.2188 131.563 11.0163C130.869 10.5414 130.171 10.0682 129.477 9.59218C132.616 8.79516 129.498 3.73212 132.638 2.93286C133.334 3.4089 134.03 3.88284 134.725 4.35469Z" fill="#FE8D00"/>
<path id="Vector_21" d="M33.9438 21.0038C35.4884 24.3758 38.637 19.3394 40.1794 22.7103C40.0002 23.6435 39.8233 24.5803 39.6432 25.5141C38.1008 22.1422 34.9541 27.1802 33.4094 23.8083C33.5891 22.8721 33.7672 21.9373 33.9438 21.0038Z" fill="#9B9B9B"/>
<path id="Vector_22" d="M7.31494 153.583C7.72927 153.508 8.10411 153.29 8.37404 152.966C8.64398 152.643 8.79185 152.235 8.79185 151.814C8.79185 151.392 8.64398 150.984 8.37404 150.661C8.10411 150.337 7.72927 150.119 7.31494 150.044" fill="black"/>
<path id="Vector_23" d="M174.948 16.8658C173.598 16.8658 172.5 15.5501 172.5 13.9328C172.5 12.3156 173.598 11 174.948 11C176.298 11 177.396 12.3156 177.396 13.9329C177.396 15.5501 176.298 16.8658 174.948 16.8658ZM174.948 12.1634C174.519 12.2058 174.124 12.415 173.848 12.7459C173.572 13.0768 173.436 13.5031 173.471 13.9329C173.432 14.1493 173.441 14.3716 173.497 14.5842C173.553 14.7968 173.655 14.9945 173.796 15.1633C173.937 15.332 174.113 15.4678 174.312 15.561C174.511 15.6541 174.728 15.7024 174.948 15.7024C175.168 15.7024 175.385 15.6541 175.584 15.561C175.783 15.4678 175.959 15.332 176.1 15.1633C176.241 14.9945 176.343 14.7968 176.399 14.5842C176.455 14.3716 176.464 14.1493 176.425 13.9329C176.459 13.5031 176.324 13.0768 176.048 12.7459C175.772 12.415 175.377 12.2058 174.948 12.1634Z" fill="black"/>
<path id="Vector_24" d="M32.4474 127.983C31.0976 127.983 29.9995 126.668 29.9995 125.05C29.9995 123.433 31.0976 122.117 32.4474 122.117C33.7972 122.117 34.8953 123.433 34.8953 125.05C34.8953 126.668 33.7972 127.983 32.4474 127.983ZM32.4474 123.281C32.0331 123.356 31.6582 123.574 31.3883 123.897C31.1184 124.221 30.9705 124.629 30.9705 125.05C30.9705 125.472 31.1184 125.88 31.3883 126.203C31.6582 126.526 32.0331 126.745 32.4474 126.82C32.8617 126.745 33.2366 126.526 33.5065 126.203C33.7764 125.88 33.9243 125.472 33.9243 125.05C33.9243 124.629 33.7764 124.221 33.5065 123.897C33.2366 123.574 32.8617 123.356 32.4474 123.281Z" fill="black"/>
</g>
</g>
</g>
</g>
</g>
</g>
<defs>
<filter id="filter0_dd_475_2354" x="-57" y="-10" width="349" height="521" filterUnits="userSpaceOnUse" color-interpolation-filters="sRGB">
<feFlood flood-opacity="0" result="BackgroundImageFix"/>
<feColorMatrix in="SourceAlpha" type="matrix" values="0 0 0 0 0 0 0 0 0 0 0 0 0 0 0 0 0 0 127 0" result="hardAlpha"/>
<feOffset dy="1"/>
<feGaussianBlur stdDeviation="1"/>
<feComposite in2="hardAlpha" operator="out"/>
<feColorMatrix type="matrix" values="0 0 0 0 0.0705882 0 0 0 0 0.0980392 0 0 0 0 0.14902 0 0 0 0.06 0"/>
<feBlend mode="normal" in2="BackgroundImageFix" result="effect1_dropShadow_475_2354"/>
<feColorMatrix in="SourceAlpha" type="matrix" values="0 0 0 0 0 0 0 0 0 0 0 0 0 0 0 0 0 0 127 0" result="hardAlpha"/>
<feOffset dy="1"/>
<feGaussianBlur stdDeviation="1.5"/>
<feComposite in2="hardAlpha" operator="out"/>
<feColorMatrix type="matrix" values="0 0 0 0 0.0705882 0 0 0 0 0.0980392 0 0 0 0 0.14902 0 0 0 0.1 0"/>
<feBlend mode="normal" in2="effect1_dropShadow_475_2354" result="effect2_dropShadow_475_2354"/>
<feBlend mode="normal" in="SourceGraphic" in2="effect2_dropShadow_475_2354" result="shape"/>
</filter>
<clipPath id="clip0_475_2354">
<rect width="375" height="812" fill="white" transform="translate(-70 -64)"/>
</clipPath>
<clipPath id="clip1_475_2354">
<rect width="208" height="213" fill="white" transform="translate(0.5)"/>
</clipPath>
</defs>
</svg>
