<svg width="16" height="16" viewBox="0 0 16 16" fill="none" xmlns="http://www.w3.org/2000/svg">
<g id="Frame">
<path id="Vector" d="M8.66665 7.33332V3.99998C8.66665 3.82317 8.59641 3.6536 8.47139 3.52858C8.34636 3.40355 8.17679 3.33332 7.99998 3.33332C7.82317 3.33332 7.6536 3.40355 7.52858 3.52858C7.40355 3.6536 7.33331 3.82317 7.33331 3.99998V7.99998C7.33331 8.1768 7.40355 8.34636 7.52858 8.47139C7.6536 8.59641 7.82317 8.66665 7.99998 8.66665H11.3333C11.5101 8.66665 11.6797 8.59641 11.8047 8.47139C11.9297 8.34636 12 8.1768 12 7.99998C12 7.82317 11.9297 7.6536 11.8047 7.52858C11.6797 7.40356 11.5101 7.33332 11.3333 7.33332H8.66665ZM7.99998 14.6667C4.31798 14.6667 1.33331 11.682 1.33331 7.99998C1.33331 4.31798 4.31798 1.33332 7.99998 1.33332C11.682 1.33332 14.6666 4.31798 14.6666 7.99998C14.6666 11.682 11.682 14.6667 7.99998 14.6667Z" fill="#FE8D00"/>
</g>
</svg>
