<svg width="112" height="27" viewBox="0 0 112 27" fill="none" xmlns="http://www.w3.org/2000/svg">
<path d="M12.62 26.4V25.62C11.42 26.19 9.89 26.4 8.39 26.4H3.65C1.64 26.4 0.32 25.08 0.32 23.1V1.5H11.51V2.88H6.41V24.21C6.41 24.69 6.74 25.02 7.22 25.02H8.57C10.01 25.02 11.51 24.81 12.62 24.24V1.5H18.41V12.57H19.79V1.5H25.85V26.7H19.79V13.95H18.41V26.4H12.62ZM38.1901 13.41V2.88H28.2301V1.5H43.1401C44.1301 1.5 44.7901 2.19 44.7901 3.18V13.41H38.1901ZM27.6901 16.89V15.51H30.0301V7.5H36.6601V14.97C36.6601 15.3 36.8701 15.51 37.2001 15.51H41.0401C42.9901 15.51 44.9401 15.33 46.1701 14.91V1.5H52.8001V9.96H55.1401V11.61H52.8001V21.51H46.1701V16.29C44.8801 16.71 42.8701 16.89 40.8601 16.89H27.6901ZM28.1101 18.42H34.7401V24.48C34.7401 24.96 35.0701 25.32 35.5501 25.32H52.9501V26.7H31.4101C29.4301 26.7 28.1101 25.08 28.1101 23.1V18.42ZM56.5302 15.87V14.76C58.9602 14.76 62.2902 12.78 62.2902 9.36V4.5H56.6502V3.12H62.2902V0.929998H68.9202V3.12H74.3802V4.5H68.5002V9.36C68.5002 13.41 62.6502 15.87 56.5302 15.87ZM75.8802 21V1.47H82.5102V21H75.8802ZM68.6202 13.32C68.6202 11.49 69.8802 10.23 71.7102 10.23C73.5402 10.23 74.8002 11.49 74.8002 13.32C74.8002 15.15 73.5402 16.41 71.7102 16.41C69.8802 16.41 68.6202 15.15 68.6202 13.32ZM56.9802 17.37H63.6102V24.45C63.6102 24.93 63.9402 25.29 64.4502 25.29H82.6602V26.67H60.3102C58.3002 26.67 56.9802 25.32 56.9802 23.34V17.37ZM85.7302 2.88V1.5H108.92C109.91 1.5 110.57 2.19 110.57 3.18V13.56H103.94V2.88H85.7302ZM85.1902 17.4V16.02H111.11V17.4H101.6V26.7H94.7002V17.4H85.1902Z" fill="url(#paint0_linear_428_3009)"/>
<path d="M12.62 26.4H8.62V30.4H12.62V26.4ZM12.62 25.62H16.62V19.2917L10.9038 22.0069L12.62 25.62ZM0.32 1.5V-2.5H-3.68V1.5H0.32ZM11.51 1.5H15.51V-2.5H11.51V1.5ZM11.51 2.88V6.88H15.51V2.88H11.51ZM6.41 2.88V-1.12H2.41V2.88H6.41ZM12.62 24.24L14.4472 27.7983L16.62 26.6825V24.24H12.62ZM12.62 1.5V-2.5H8.62V1.5H12.62ZM18.41 1.5H22.41V-2.5H18.41V1.5ZM18.41 12.57H14.41V16.57H18.41V12.57ZM19.79 12.57V16.57H23.79V12.57H19.79ZM19.79 1.5V-2.5H15.79V1.5H19.79ZM25.85 1.5H29.85V-2.5H25.85V1.5ZM25.85 26.7V30.7H29.85V26.7H25.85ZM19.79 26.7H15.79V30.7H19.79V26.7ZM19.79 13.95H23.79V9.95H19.79V13.95ZM18.41 13.95V9.95H14.41V13.95H18.41ZM18.41 26.4V30.4H22.41V26.4H18.41ZM16.62 26.4V25.62H8.62V26.4H16.62ZM10.9038 22.0069C10.4653 22.2152 9.60997 22.4 8.39 22.4V30.4C10.17 30.4 12.3747 30.1648 14.3362 29.2331L10.9038 22.0069ZM8.39 22.4H3.65V30.4H8.39V22.4ZM3.65 22.4C3.58558 22.4 3.61362 22.3898 3.70462 22.4245C3.79958 22.4606 3.9275 22.5327 4.05051 22.6549C4.17366 22.7773 4.24977 22.908 4.28958 23.0112C4.32787 23.1105 4.32 23.15 4.32 23.1H-3.68C-3.68 24.9997 -3.02871 26.8987 -1.58801 28.3301C-0.149018 29.7598 1.75186 30.4 3.65 30.4V22.4ZM4.32 23.1V1.5H-3.68V23.1H4.32ZM0.32 5.5H11.51V-2.5H0.32V5.5ZM7.51 1.5V2.88H15.51V1.5H7.51ZM11.51 -1.12H6.41V6.88H11.51V-1.12ZM2.41 2.88V24.21H10.41V2.88H2.41ZM2.41 24.21C2.41 25.39 2.8326 26.6495 3.80657 27.6234C4.78055 28.5974 6.03997 29.02 7.22 29.02V21.02C7.92003 21.02 8.77445 21.2776 9.46343 21.9666C10.1524 22.6555 10.41 23.51 10.41 24.21H2.41ZM7.22 29.02H8.57V21.02H7.22V29.02ZM8.57 29.02C10.271 29.02 12.5131 28.7915 14.4472 27.7983L10.7928 20.6817C10.5069 20.8285 9.74899 21.02 8.57 21.02V29.02ZM16.62 24.24V1.5H8.62V24.24H16.62ZM12.62 5.5H18.41V-2.5H12.62V5.5ZM14.41 1.5V12.57H22.41V1.5H14.41ZM18.41 16.57H19.79V8.57H18.41V16.57ZM23.79 12.57V1.5H15.79V12.57H23.79ZM19.79 5.5H25.85V-2.5H19.79V5.5ZM21.85 1.5V26.7H29.85V1.5H21.85ZM25.85 22.7H19.79V30.7H25.85V22.7ZM23.79 26.7V13.95H15.79V26.7H23.79ZM19.79 9.95H18.41V17.95H19.79V9.95ZM14.41 13.95V26.4H22.41V13.95H14.41ZM18.41 22.4H12.62V30.4H18.41V22.4ZM38.1901 13.41H34.1901V17.41H38.1901V13.41ZM38.1901 2.88H42.1901V-1.12H38.1901V2.88ZM28.2301 2.88H24.2301V6.88H28.2301V2.88ZM28.2301 1.5V-2.5H24.2301V1.5H28.2301ZM44.7901 13.41V17.41H48.7901V13.41H44.7901ZM27.6901 16.89H23.6901V20.89H27.6901V16.89ZM27.6901 15.51V11.51H23.6901V15.51H27.6901ZM30.0301 15.51V19.51H34.0301V15.51H30.0301ZM30.0301 7.5V3.5H26.0301V7.5H30.0301ZM36.6601 7.5H40.6601V3.5H36.6601V7.5ZM46.1701 14.91L47.4627 18.6954L50.1701 17.7709V14.91H46.1701ZM46.1701 1.5V-2.5H42.1701V1.5H46.1701ZM52.8001 1.5H56.8001V-2.5H52.8001V1.5ZM52.8001 9.96H48.8001V13.96H52.8001V9.96ZM55.1401 9.96H59.1401V5.96H55.1401V9.96ZM55.1401 11.61V15.61H59.1401V11.61H55.1401ZM52.8001 11.61V7.61H48.8001V11.61H52.8001ZM52.8001 21.51V25.51H56.8001V21.51H52.8001ZM46.1701 21.51H42.1701V25.51H46.1701V21.51ZM46.1701 16.29H50.1701V10.781L44.9317 12.4865L46.1701 16.29ZM28.1101 18.42V14.42H24.1101V18.42H28.1101ZM34.7401 18.42H38.7401V14.42H34.7401V18.42ZM52.9501 25.32H56.9501V21.32H52.9501V25.32ZM52.9501 26.7V30.7H56.9501V26.7H52.9501ZM42.1901 13.41V2.88H34.1901V13.41H42.1901ZM38.1901 -1.12H28.2301V6.88H38.1901V-1.12ZM32.2301 2.88V1.5H24.2301V2.88H32.2301ZM28.2301 5.5H43.1401V-2.5H28.2301V5.5ZM43.1401 5.5C42.6738 5.5 42.0141 5.31704 41.4719 4.76068C40.9399 4.21491 40.7901 3.58741 40.7901 3.18H48.7901C48.7901 1.78258 48.3102 0.315083 47.2008 -0.823187C46.081 -1.97205 44.5964 -2.5 43.1401 -2.5V5.5ZM40.7901 3.18V13.41H48.7901V3.18H40.7901ZM44.7901 9.41H38.1901V17.41H44.7901V9.41ZM31.6901 16.89V15.51H23.6901V16.89H31.6901ZM27.6901 19.51H30.0301V11.51H27.6901V19.51ZM34.0301 15.51V7.5H26.0301V15.51H34.0301ZM30.0301 11.5H36.6601V3.5H30.0301V11.5ZM32.6601 7.5V14.97H40.6601V7.5H32.6601ZM32.6601 14.97C32.6601 15.9969 33.0041 17.2184 33.9779 18.1922C34.9517 19.166 36.1732 19.51 37.2001 19.51V11.51C37.8969 11.51 38.8485 11.749 39.6348 12.5353C40.421 13.3216 40.6601 14.2731 40.6601 14.97H32.6601ZM37.2001 19.51H41.0401V11.51H37.2001V19.51ZM41.0401 19.51C43.0848 19.51 45.5826 19.3374 47.4627 18.6954L44.8775 11.1246C44.2976 11.3226 42.8953 11.51 41.0401 11.51V19.51ZM50.1701 14.91V1.5H42.1701V14.91H50.1701ZM46.1701 5.5H52.8001V-2.5H46.1701V5.5ZM48.8001 1.5V9.96H56.8001V1.5H48.8001ZM52.8001 13.96H55.1401V5.96H52.8001V13.96ZM51.1401 9.96V11.61H59.1401V9.96H51.1401ZM55.1401 7.61H52.8001V15.61H55.1401V7.61ZM48.8001 11.61V21.51H56.8001V11.61H48.8001ZM52.8001 17.51H46.1701V25.51H52.8001V17.51ZM50.1701 21.51V16.29H42.1701V21.51H50.1701ZM44.9317 12.4865C44.2621 12.7045 42.7706 12.89 40.8601 12.89V20.89C42.9695 20.89 45.4981 20.7155 47.4084 20.0935L44.9317 12.4865ZM40.8601 12.89H27.6901V20.89H40.8601V12.89ZM28.1101 22.42H34.7401V14.42H28.1101V22.42ZM30.7401 18.42V24.48H38.7401V18.42H30.7401ZM30.7401 24.48C30.7401 26.9733 32.6701 29.32 35.5501 29.32V21.32C36.3555 21.32 37.218 21.6438 37.8651 22.325C38.4948 22.9879 38.7401 23.7947 38.7401 24.48H30.7401ZM35.5501 29.32H52.9501V21.32H35.5501V29.32ZM48.9501 25.32V26.7H56.9501V25.32H48.9501ZM52.9501 22.7H31.4101V30.7H52.9501V22.7ZM31.4101 22.7C31.4698 22.7 31.5821 22.7143 31.7144 22.7745C31.8437 22.8333 31.9445 22.9141 32.0129 22.9915C32.1461 23.142 32.1101 23.2134 32.1101 23.1H24.1101C24.1101 26.8161 26.7759 30.7 31.4101 30.7V22.7ZM32.1101 23.1V18.42H24.1101V23.1H32.1101ZM56.5302 15.87H52.5302V19.87H56.5302V15.87ZM56.5302 14.76V10.76H52.5302V14.76H56.5302ZM62.2902 4.5H66.2902V0.499999H62.2902V4.5ZM56.6502 4.5H52.6502V8.5H56.6502V4.5ZM56.6502 3.12V-0.880001H52.6502V3.12H56.6502ZM62.2902 3.12V7.12H66.2902V3.12H62.2902ZM62.2902 0.929998V-3.07H58.2902V0.929998H62.2902ZM68.9202 0.929998H72.9202V-3.07H68.9202V0.929998ZM68.9202 3.12H64.9202V7.12H68.9202V3.12ZM74.3802 3.12H78.3802V-0.880001H74.3802V3.12ZM74.3802 4.5V8.5H78.3802V4.5H74.3802ZM68.5002 4.5V0.499999H64.5002V4.5H68.5002ZM75.8802 21H71.8802V25H75.8802V21ZM75.8802 1.47V-2.53H71.8802V1.47H75.8802ZM82.5102 1.47H86.5102V-2.53H82.5102V1.47ZM82.5102 21V25H86.5102V21H82.5102ZM56.9802 17.37V13.37H52.9802V17.37H56.9802ZM63.6102 17.37H67.6102V13.37H63.6102V17.37ZM82.6602 25.29H86.6602V21.29H82.6602V25.29ZM82.6602 26.67V30.67H86.6602V26.67H82.6602ZM60.5302 15.87V14.76H52.5302V15.87H60.5302ZM56.5302 18.76C58.7165 18.76 61.036 17.9147 62.8426 16.4479C64.7269 14.9181 66.2902 12.4974 66.2902 9.36H58.2902C58.2902 9.64262 58.1884 9.92194 57.8002 10.2371C57.5954 10.4033 57.344 10.5445 57.0819 10.6404C56.8129 10.7387 56.6138 10.76 56.5302 10.76V18.76ZM66.2902 9.36V4.5H58.2902V9.36H66.2902ZM62.2902 0.499999H56.6502V8.5H62.2902V0.499999ZM60.6502 4.5V3.12H52.6502V4.5H60.6502ZM56.6502 7.12H62.2902V-0.880001H56.6502V7.12ZM66.2902 3.12V0.929998H58.2902V3.12H66.2902ZM62.2902 4.93H68.9202V-3.07H62.2902V4.93ZM64.9202 0.929998V3.12H72.9202V0.929998H64.9202ZM68.9202 7.12H74.3802V-0.880001H68.9202V7.12ZM70.3802 3.12V4.5H78.3802V3.12H70.3802ZM74.3802 0.499999H68.5002V8.5H74.3802V0.499999ZM64.5002 4.5V9.36H72.5002V4.5H64.5002ZM64.5002 9.36C64.5002 9.37421 64.4995 9.377 64.4952 9.38836C64.4888 9.40509 64.4617 9.46932 64.3745 9.57766C64.1851 9.81293 63.7736 10.1774 63.0117 10.5609C61.4691 11.3374 59.1252 11.87 56.5302 11.87V19.87C60.0551 19.87 63.6962 19.1726 66.6086 17.7066C69.4141 16.2944 72.5002 13.6004 72.5002 9.36H64.5002ZM79.8802 21V1.47H71.8802V21H79.8802ZM75.8802 5.47H82.5102V-2.53H75.8802V5.47ZM78.5102 1.47V21H86.5102V1.47H78.5102ZM82.5102 17H75.8802V25H82.5102V17ZM72.6202 13.32C72.6202 13.3465 72.5941 13.6304 72.3073 13.9172C72.0206 14.2039 71.7367 14.23 71.7102 14.23V6.23C69.8536 6.23 68.0247 6.88606 66.6505 8.26032C65.2762 9.63459 64.6202 11.4635 64.6202 13.32H72.6202ZM71.7102 14.23C71.6836 14.23 71.3997 14.2039 71.113 13.9172C70.8262 13.6304 70.8002 13.3465 70.8002 13.32H78.8002C78.8002 11.4635 78.1441 9.63459 76.7698 8.26032C75.3956 6.88606 73.5667 6.23 71.7102 6.23V14.23ZM70.8002 13.32C70.8002 13.2935 70.8262 13.0096 71.113 12.7228C71.3997 12.4361 71.6836 12.41 71.7102 12.41V20.41C73.5667 20.41 75.3956 19.7539 76.7698 18.3797C78.1441 17.0054 78.8002 15.1765 78.8002 13.32H70.8002ZM71.7102 12.41C71.7367 12.41 72.0206 12.4361 72.3073 12.7228C72.5941 13.0096 72.6202 13.2935 72.6202 13.32H64.6202C64.6202 15.1765 65.2762 17.0054 66.6505 18.3797C68.0247 19.7539 69.8536 20.41 71.7102 20.41V12.41ZM56.9802 21.37H63.6102V13.37H56.9802V21.37ZM59.6102 17.37V24.45H67.6102V17.37H59.6102ZM59.6102 24.45C59.6102 25.6183 60.0238 26.8669 60.9749 27.8424C61.9411 28.8334 63.2168 29.29 64.4502 29.29V21.29C65.1735 21.29 66.0292 21.5666 66.7029 22.2576C67.3615 22.9331 67.6102 23.7617 67.6102 24.45H59.6102ZM64.4502 29.29H82.6602V21.29H64.4502V29.29ZM78.6602 25.29V26.67H86.6602V25.29H78.6602ZM82.6602 22.67H60.3102V30.67H82.6602V22.67ZM60.3102 22.67C60.2565 22.67 60.2921 22.6615 60.3873 22.6984C60.486 22.7367 60.6113 22.8098 60.7289 22.9282C60.8462 23.0462 60.9168 23.1699 60.9531 23.2646C60.9881 23.356 60.9802 23.39 60.9802 23.34H52.9802C52.9802 25.2364 53.6286 27.1323 55.0539 28.5668C56.4832 30.0053 58.386 30.67 60.3102 30.67V22.67ZM60.9802 23.34V17.37H52.9802V23.34H60.9802ZM85.7302 2.88H81.7302V6.88H85.7302V2.88ZM85.7302 1.5V-2.5H81.7302V1.5H85.7302ZM110.57 13.56V17.56H114.57V13.56H110.57ZM103.94 13.56H99.9402V17.56H103.94V13.56ZM103.94 2.88H107.94V-1.12H103.94V2.88ZM85.1902 17.4H81.1902V21.4H85.1902V17.4ZM85.1902 16.02V12.02H81.1902V16.02H85.1902ZM111.11 16.02H115.11V12.02H111.11V16.02ZM111.11 17.4V21.4H115.11V17.4H111.11ZM101.6 17.4V13.4H97.6002V17.4H101.6ZM101.6 26.7V30.7H105.6V26.7H101.6ZM94.7002 26.7H90.7002V30.7H94.7002V26.7ZM94.7002 17.4H98.7002V13.4H94.7002V17.4ZM89.7302 2.88V1.5H81.7302V2.88H89.7302ZM85.7302 5.5H108.92V-2.5H85.7302V5.5ZM108.92 5.5C108.454 5.5 107.794 5.31704 107.252 4.76068C106.72 4.21491 106.57 3.58741 106.57 3.18H114.57C114.57 1.78258 114.09 0.315083 112.981 -0.823187C111.861 -1.97205 110.377 -2.5 108.92 -2.5V5.5ZM106.57 3.18V13.56H114.57V3.18H106.57ZM110.57 9.56H103.94V17.56H110.57V9.56ZM107.94 13.56V2.88H99.9402V13.56H107.94ZM103.94 -1.12H85.7302V6.88H103.94V-1.12ZM89.1902 17.4V16.02H81.1902V17.4H89.1902ZM85.1902 20.02H111.11V12.02H85.1902V20.02ZM107.11 16.02V17.4H115.11V16.02H107.11ZM111.11 13.4H101.6V21.4H111.11V13.4ZM97.6002 17.4V26.7H105.6V17.4H97.6002ZM101.6 22.7H94.7002V30.7H101.6V22.7ZM98.7002 26.7V17.4H90.7002V26.7H98.7002ZM94.7002 13.4H85.1902V21.4H94.7002V13.4Z" fill="#3A1310"/>
<defs>
<linearGradient id="paint0_linear_428_3009" x1="56" y1="-6" x2="56" y2="35" gradientUnits="userSpaceOnUse">
<stop stop-color="#FF9900"/>
<stop offset="0.244792" stop-color="#FFA928"/>
<stop offset="0.458333" stop-color="white"/>
<stop offset="1" stop-color="white"/>
</linearGradient>
</defs>
</svg>
