<svg width="16" height="16" viewBox="0 0 16 16" fill="none" xmlns="http://www.w3.org/2000/svg">
<g id="Frame" clip-path="url(#clip0_176_1433)">
<path id="Vector" d="M7.99963 0.999878C6.54147 1.00161 5.14353 1.58163 4.11246 2.6127C3.08138 3.64378 2.50136 5.04172 2.49963 6.49988C2.49963 11.2059 7.49963 14.7606 7.71252 14.9095C7.79672 14.9683 7.89694 14.9999 7.99963 14.9999C8.10233 14.9999 8.20255 14.9683 8.28674 14.9095C8.49963 14.7606 13.4996 11.2059 13.4996 6.49988C13.4979 5.04172 12.9179 3.64378 11.8868 2.6127C10.8557 1.58163 9.45779 1.00161 7.99963 0.999878ZM8 4.50006C8.39556 4.50006 8.78224 4.61736 9.11114 4.83712C9.44004 5.05688 9.69638 5.36924 9.84776 5.73469C9.99913 6.10014 10.0387 6.50228 9.96157 6.89024C9.8844 7.2782 9.69392 7.63457 9.41421 7.91427C9.13451 8.19398 8.77814 8.38446 8.39018 8.46163C8.00222 8.5388 7.60009 8.49919 7.23463 8.34782C6.86918 8.19644 6.55682 7.9401 6.33706 7.6112C6.1173 7.2823 6 6.89562 6 6.50006C5.99999 6.23741 6.05172 5.97734 6.15223 5.73468C6.25273 5.49203 6.40005 5.27155 6.58577 5.08583C6.77149 4.90011 6.99197 4.75279 7.23462 4.65229C7.47728 4.55178 7.73735 4.50005 8 4.50006Z" fill="#FE8D00"/>
</g>
<defs>
<clipPath id="clip0_176_1433">
<rect width="16" height="16" fill="white"/>
</clipPath>
</defs>
</svg>
