<svg width="16" height="16" viewBox="0 0 16 16" fill="none" xmlns="http://www.w3.org/2000/svg">
<g id="mingcute:currency-won-fill" clip-path="url(#clip0_475_3670)">
<g id="Group">
<path id="Vector" fill-rule="evenodd" clip-rule="evenodd" d="M7.99998 14.6667C11.682 14.6667 14.6666 11.682 14.6666 7.99999C14.6666 4.31799 11.682 1.33333 7.99998 1.33333C4.31798 1.33333 1.33331 4.31799 1.33331 7.99999C1.33331 11.682 4.31798 14.6667 7.99998 14.6667ZM5.97998 5.83799C5.936 5.66759 5.82642 5.5215 5.67515 5.43156C5.52387 5.34163 5.34318 5.31516 5.17247 5.35793C5.00175 5.4007 4.85488 5.50923 4.76387 5.65985C4.67286 5.81048 4.6451 5.99098 4.68665 6.16199L4.81331 6.66666H4.66665C4.48984 6.66666 4.32027 6.7369 4.19524 6.86192C4.07022 6.98695 3.99998 7.15652 3.99998 7.33333C3.99998 7.51014 4.07022 7.67971 4.19524 7.80473C4.32027 7.92976 4.48984 7.99999 4.66665 7.99999H5.14665L5.31331 8.66666H4.66665C4.48984 8.66666 4.32027 8.7369 4.19524 8.86192C4.07022 8.98695 3.99998 9.15652 3.99998 9.33333C3.99998 9.51014 4.07022 9.67971 4.19524 9.80473C4.32027 9.92976 4.48984 9.99999 4.66665 9.99999H5.64665L5.96465 11.2733C6.14198 11.9847 7.13931 12.0233 7.37131 11.3267L7.99998 9.44133L8.62865 11.3267C8.86065 12.0233 9.85798 11.9847 10.0353 11.2733L10.354 9.99999H11.3333C11.5101 9.99999 11.6797 9.92976 11.8047 9.80473C11.9297 9.67971 12 9.51014 12 9.33333C12 9.15652 11.9297 8.98695 11.8047 8.86192C11.6797 8.7369 11.5101 8.66666 11.3333 8.66666H10.6866L10.8533 7.99999H11.3333C11.5101 7.99999 11.6797 7.92976 11.8047 7.80473C11.9297 7.67971 12 7.51014 12 7.33333C12 7.15652 11.9297 6.98695 11.8047 6.86192C11.6797 6.7369 11.5101 6.66666 11.3333 6.66666H11.1866L11.3133 6.16199C11.3353 6.07684 11.3402 5.98817 11.3278 5.90111C11.3153 5.81404 11.2858 5.7303 11.2409 5.6547C11.1959 5.5791 11.1365 5.51314 11.0659 5.46063C10.9954 5.40811 10.9151 5.37007 10.8298 5.34869C10.7445 5.32732 10.6558 5.32304 10.5688 5.3361C10.4818 5.34916 10.3983 5.37929 10.323 5.42478C10.2478 5.47026 10.1822 5.53018 10.1302 5.6011C10.0782 5.67202 10.0407 5.75253 10.02 5.83799L9.24198 8.95066L8.63265 7.12266C8.5885 6.98977 8.50362 6.87415 8.39006 6.79221C8.2765 6.71028 8.14002 6.66618 7.99998 6.66618C7.85994 6.66618 7.72346 6.71028 7.6099 6.79221C7.49634 6.87415 7.41146 6.98977 7.36731 7.12266L6.75798 8.95066L5.97998 5.83799Z" fill="#FE8D00"/>
</g>
</g>
<defs>
<clipPath id="clip0_475_3670">
<rect width="16" height="16" fill="white"/>
</clipPath>
</defs>
</svg>
