<svg width="26" height="26" viewBox="0 0 26 26" fill="none" xmlns="http://www.w3.org/2000/svg">
<path d="M9.40002 25.5999H22.9C23.6161 25.5999 24.3029 25.3154 24.8092 24.8091C25.3156 24.3027 25.6 23.616 25.6 22.8999V21.0999C25.6 20.3838 25.3156 19.6971 24.8092 19.1907C24.3029 18.6844 23.6161 18.3999 22.9 18.3999H9.40002V25.5999ZM9.40002 16.5999H22.9C23.6161 16.5999 24.3029 16.3154 24.8092 15.8091C25.3156 15.3027 25.6 14.616 25.6 13.8999V12.0999C25.6 11.3838 25.3156 10.6971 24.8092 10.1907C24.3029 9.68437 23.6161 9.3999 22.9 9.3999H9.40002V16.5999ZM7.60002 9.3999V16.5999H3.10002C2.38394 16.5999 1.69718 16.3154 1.19084 15.8091C0.684488 15.3027 0.400024 14.616 0.400024 13.8999V12.0999C0.400024 11.3838 0.684488 10.6971 1.19084 10.1907C1.69718 9.68437 2.38394 9.3999 3.10002 9.3999H7.60002ZM9.40002 7.5999H22.9C23.6161 7.5999 24.3029 7.31544 24.8092 6.80909C25.3156 6.30274 25.6 5.61599 25.6 4.8999V3.0999C25.6 2.38382 25.3156 1.69706 24.8092 1.19071C24.3029 0.684366 23.6161 0.399902 22.9 0.399902H9.40002V7.5999ZM7.60002 0.399902V7.5999H3.10002C2.38394 7.5999 1.69718 7.31544 1.19084 6.80909C0.684488 6.30274 0.400024 5.61599 0.400024 4.8999V3.0999C0.400024 2.38382 0.684488 1.69706 1.19084 1.19071C1.69718 0.684366 2.38394 0.399902 3.10002 0.399902H7.60002ZM7.60002 18.3999V25.5999H3.10002C2.38394 25.5999 1.69718 25.3154 1.19084 24.8091C0.684488 24.3027 0.400024 23.616 0.400024 22.8999V21.0999C0.400024 20.3838 0.684488 19.6971 1.19084 19.1907C1.69718 18.6844 2.38394 18.3999 3.10002 18.3999H7.60002Z" fill="black"/>
</svg>
