<svg width="32" height="29" viewBox="0 0 32 29" fill="none" xmlns="http://www.w3.org/2000/svg">
<path d="M26.5 17.0001V21.5001H31V24.5001H26.5V29.0001H23.5V24.5001H19V21.5001H23.5V17.0001H26.5ZM28.3645 3.13559C29.9121 4.68278 30.8429 6.74081 30.9829 8.92464C31.1229 11.1085 30.4624 13.2685 29.125 15.0006C27.4234 14.1229 25.4862 13.8107 23.595 14.1094C21.7038 14.4081 19.9572 15.3022 18.609 16.6616C17.2607 18.0211 16.3811 19.7751 16.0981 21.6687C15.815 23.5623 16.1433 25.4968 17.035 27.1911L16 28.2276L3.28153 15.4896C1.75042 13.7735 0.934338 11.5364 1.00084 9.23757C1.06734 6.93871 2.01137 4.75252 3.63913 3.12784C5.26688 1.50315 7.45485 0.563252 9.75383 0.501094C12.0528 0.438936 14.2884 1.25924 16.0015 2.79359C17.7154 1.25939 19.9518 0.439898 22.2511 0.503505C24.5505 0.567112 26.7381 1.50899 28.3645 3.13559Z" fill="#FE8D00"/>
</svg>
