<svg width="24" height="24" viewBox="0 0 24 24" fill="none" xmlns="http://www.w3.org/2000/svg">
<g id="mingcute:share-forward-fill" clip-path="url(#clip0_475_3055)">
<g id="Group">
<path id="Vector" d="M10.114 4.49099L9.911 7.63499L9.891 8.05199L9.801 8.06199C5.363 8.58199 2 12.366 2 17C2 17.457 2.034 17.91 2.102 18.357C2.381 20.202 2.591 20.381 3.874 18.855C4.19197 18.4838 4.5398 18.1394 4.914 17.825C6.25692 16.7149 7.92704 16.0762 9.668 16.007L9.894 16.002L9.955 17.231L10.121 19.576C10.201 20.38 11.047 20.929 11.825 20.49C12.177 20.292 12.52 20.08 12.865 19.87C14.652 18.752 16.325 17.467 17.955 16.132C18.915 15.332 19.755 14.574 20.471 13.884C20.801 13.561 21.131 13.238 21.45 12.904C21.912 12.42 21.958 11.619 21.474 11.112C20.36 9.94699 18.786 8.48799 16.827 6.93999C15.239 5.69799 13.597 4.53799 11.857 3.51899C11.02 3.04199 10.19 3.69599 10.114 4.49099Z" fill="#F69802"/>
</g>
</g>
<defs>
<clipPath id="clip0_475_3055">
<rect width="24" height="24" fill="white"/>
</clipPath>
</defs>
</svg>
