<svg width="194" height="48" viewBox="0 0 194 48" fill="none" xmlns="http://www.w3.org/2000/svg">
<path d="M0.95 42.85C0.0500002 31.5 1.19209e-07 13.75 0.7 2.4H11.25V13.45H16.8V2.4H27.65V42.85C19 43.05 9.6 43.05 0.95 42.85ZM11.25 33.45H16.8V23H11.25V33.45ZM29.85 2.9C30.05 0.549997 37.25 0.899999 42.9 0.999997C43.3 16.05 43.3 31.1 42.9 46.15L32.1 47.15V3.25C31.85 3.2 30.9 3.3 30.65 3.55L29.85 2.9ZM63.45 43.5C54.1 43.5 49.8 37.15 49.8 24.45C49.8 14.7 52.15 8.2 56.3 5C56.75 3.65 57.55 2.4 58.9 1.4L60.15 1.75C60.05 2.15 60.1 2.65 60.15 3.1C61.2 2.85 62.3 2.7 63.45 2.7C64.6 2.7 65.7 2.85 66.75 3.15C66.8 2.65 66.85 2.15 66.75 1.75L68 1.4C69.35 2.45 70.2 3.7 70.6 5.1C74.7 8.3 77.1 14.8 77.1 24.45C77.1 37.15 72.75 43.5 63.45 43.5ZM60.45 23.75C60.45 29.15 60.5 33.7 63.45 33.7C66.35 33.7 66.45 29.15 66.45 23.75C66.45 18.55 65.9 12.95 63.45 12.95C60.9 12.95 60.45 18.55 60.45 23.75ZM77.9 25.75V16.2H82.35V3.25C82.1 3.2 81.15 3.3 80.9 3.55L80.1 2.9C80.3 0.549997 87.25 0.899999 92.9 0.999997C93.3 16.05 93.3 31.1 92.9 46.15L82.35 47.15V25.75H77.9ZM100.95 42.85C100.05 31.5 100 13.75 100.7 2.4H110.85V13.45H115.95V2.4H126.4V42.85C117.75 43.05 109.6 43.05 100.95 42.85ZM110.85 33.45H115.95V23H110.85V33.45ZM127.9 25.75V16.2H132.35V3.25C132.1 3.2 131.15 3.3 130.9 3.55L130.1 2.9C130.3 0.549997 137.25 0.899999 142.9 0.999997C143.3 16.05 143.3 31.1 142.9 46.15L132.35 47.15V25.75H127.9ZM151.05 42.85C150.15 29.9 150.1 15.85 150.8 2.9C159.6 2.3 168.35 2.3 177.15 2.9V12.05H161.4C161.15 18.6 161.1 26.6 161.4 33.35L178.3 32.95V42.25C169.95 42.85 159.4 43.15 151.05 42.85ZM179.85 2.9C180.05 0.549997 187.25 0.899999 192.9 0.999997C193.3 16.05 193.3 31.1 192.9 46.15L182.1 47.15V3.25C181.85 3.2 180.9 3.3 180.65 3.55L179.85 2.9Z" fill="#E06738"/>
</svg>
